<svg version="1.1" xmlns="http://www.w3.org/2000/svg" xmlns:xlink="http://www.w3.org/1999/xlink" stroke-linecap="round" stroke-linejoin="round" stroke-width="0" fill-rule="evenodd" clip-rule="evenodd" id="EAAkFM-HclNvTWwTSthK_bottom" viewBox="0 0 1000 1125" width="1in" height="1.125in" class="w-100 h-100"><defs><style>.EAAkFM-HclNvTWwTSthK_fr4 {color: #666666;}
.EAAkFM-HclNvTWwTSthK_cu {color: #cccccc;}
.EAAkFM-HclNvTWwTSthK_cf {color: #cc9933;}
.EAAkFM-HclNvTWwTSthK_sm {color: #004200; opacity: 0.75;}
.EAAkFM-HclNvTWwTSthK_ss {color: #ffffff;}
.EAAkFM-HclNvTWwTSthK_sp {color: #999999;}
.EAAkFM-HclNvTWwTSthK_out {color: #000000;}</style><mask id="D0gTEms0YWaX4crnmQpw_clear-1" fill="#000" stroke="#000"><g><rect x="0.1" y="5" width="999.8" height="1119.9" fill="#fff"/><path d="M 947.44 112.44 952.56 112.44 957.66 113.14 962.6 114.54 967.32 116.58 971.7 119.24 975.699 122.5 979.2 126.24 982.159 130.44 984.52 135 986.24 139.84 987.3 144.88 987.64 150 987.3 155.12 986.24 160.159 984.52 165 982.159 169.56 979.2 173.76 975.699 177.5 971.7 180.76 967.32 183.42 962.6 185.46 957.66 186.86 952.56 187.56 947.44 187.56 942.34 186.86 937.4 185.46 932.68 183.42 928.3 180.76 924.3 177.5 920.8 173.76 917.84 169.56 915.48 165 913.76 160.159 912.7 155.12 912.36 150 912.7 144.88 913.76 139.84 915.48 135 917.84 130.44 920.8 126.24 924.3 122.5 928.3 119.24 932.68 116.58 937.4 114.54 942.34 113.14"/><path d="M 257.719 124.9 282.28 124.9 284.74 125.18 286.18 125.68 287.5 125.9 288.82 125.68 290.26 125.18 292.72 124.9 317.28 124.9 319.74 125.18 321.18 125.68 322.5 125.9 323.82 125.68 325.26 125.18 327.72 124.9 352.28 124.9 354.739 125.18 356.88 125.92 358.78 127.12 360.379 128.72 361.58 130.62 362.32 132.76 362.6 135.22 362.6 184.78 362.32 187.24 361.58 189.38 360.379 191.28 358.78 192.88 355.379 194.96 354.44 196.28 354.099 197.88 354.099 559.8 353.78 562.92 352.86 565.72 351.36 568.32 349.86 570.08 86.42 833.52 85.58 834.76 85.26 836.22 85.48 837.68 86.24 839.84 87.3 844.88 87.64 850 87.3 855.12 86.24 860.16 84.52 865 82.16 869.56 79.2 873.76 75.7 877.5 71.7 880.759 67.32 883.42 62.6 885.46 57.66 886.86 52.56 887.56 47.44 887.56 42.34 886.86 37.4 885.46 32.679 883.42 28.3 880.759 24.3 877.5 20.8 873.76 17.84 869.56 15.48 865 13.759 860.16 12.7 855.12 12.36 850 12.7 844.88 13.759 839.84 15.48 835 17.84 830.44 20.8 826.24 24.3 822.5 28.3 819.24 32.679 816.58 37.4 814.539 42.34 813.139 47.44 812.44 52.56 812.44 57.66 813.139 62.64 814.539 64.04 814.68 65.4 814.32 66.54 813.52 245.6 634.46 246.54 633 246.759 631.28 246.24 629.62 245.08 628.34 242.6 626.62 240.96 624.98 239.66 624.1 238.12 623.8 197.8 623.8 196.26 624.1 194.96 624.98 86.42 733.52 85.58 734.76 85.26 736.22 85.48 737.68 86.24 739.84 87.3 744.88 87.64 750 87.3 755.12 86.24 760.16 84.52 765 82.16 769.56 79.2 773.76 75.7 777.5 71.7 780.759 67.32 783.42 62.6 785.46 57.66 786.86 52.56 787.56 47.44 787.56 42.34 786.86 37.4 785.46 32.679 783.42 28.3 780.759 24.3 777.5 20.8 773.76 17.84 769.56 15.48 765 13.759 760.16 12.7 755.12 12.36 750 12.7 744.88 13.759 739.84 15.48 735 17.84 730.44 20.8 726.24 24.3 722.5 28.3 719.24 32.679 716.58 37.4 714.539 42.34 713.139 47.44 712.44 52.56 712.44 57.66 713.139 62.64 714.539 64.04 714.68 65.4 714.32 66.54 713.52 180.18 599.88 182.64 597.9 185.26 596.56 188.14 595.78 190.46 595.6 238.12 595.6 239.66 595.3 240.96 594.42 242.6 592.78 245.76 590.58 249.24 588.94 252.96 587.96 256.8 587.62 260.64 587.96 264.36 588.94 267.84 590.58 271 592.78 273.72 595.5 275.44 597.98 276.72 599.14 278.38 599.66 280.1 599.44 281.56 598.5 304.9 575.16 305.82 573.7 306.06 571.98 305.54 570.34 304.36 569.06 301.3 566.92 299.66 565.28 298.36 564.4 296.82 564.1 87.42 564.1 86 564.36 84.76 565.12 83.859 566.26 82.16 569.56 79.2 573.76 75.7 577.5 71.7 580.76 67.32 583.42 62.6 585.46 57.66 586.86 52.56 587.56 47.44 587.56 42.34 586.86 37.4 585.46 32.679 583.42 28.3 580.76 24.3 577.5 20.8 573.76 17.84 569.56 15.48 565 13.759 560.16 12.7 555.12 12.36 550 12.7 544.88 13.759 539.84 15.48 535 17.84 530.44 20.8 526.24 24.3 522.5 28.3 519.24 32.679 516.58 37.4 514.54 42.34 513.14 47.44 512.44 52.56 512.44 57.66 513.14 62.6 514.54 67.32 516.58 71.7 519.24 75.7 522.5 79.2 526.24 82.16 530.44 83.859 533.74 84.76 534.88 86 535.64 87.42 535.9 296.82 535.9 298.36 535.6 299.66 534.72 301.3 533.08 304.46 530.88 307.94 529.24 311.66 528.26 315.5 527.92 319.34 528.26 320.86 528.66 322.32 528.78 323.72 528.36 324.88 527.48 325.64 526.24 325.9 524.8 325.9 271.54 325.58 269.96 324.66 268.64 323.3 267.8 321.719 267.54 320.16 267.94 318.88 268.9 318.1 270.3 317.86 271.02 316.36 273.62 314.86 275.38 255.94 334.3 255 335.76 254.44 341.44 253.46 345.16 251.82 348.64 249.62 351.8 246.9 354.52 243.74 356.719 240.26 358.36 236.54 359.34 232.7 359.68 228.86 359.34 225.14 358.36 221.66 356.719 218.5 354.52 215.78 351.8 213.58 348.64 211.94 345.16 210.96 341.44 210.62 337.6 210.96 333.76 211.94 330.04 213.58 326.56 215.78 323.4 218.5 320.68 221.66 318.48 225.14 316.84 228.86 315.86 232.82 315.52 234.54 315.3 236 314.36 289.72 260.64 290.6 259.34 290.9 257.8 290.9 236.24 290.58 234.66 289.66 233.34 288.3 232.5 286.72 232.24 285.16 232.64 283.88 233.6 283.1 235 282.86 235.72 281.36 238.32 279.86 240.08 86.42 433.519 85.58 434.76 85.26 436.22 85.48 437.68 86.24 439.84 87.3 444.88 87.64 450 87.3 455.12 86.24 460.16 84.52 465 82.16 469.56 79.2 473.76 75.7 477.5 71.7 480.76 67.32 483.42 62.6 485.46 57.66 486.86 52.56 487.56 47.44 487.56 42.34 486.86 37.4 485.46 32.679 483.42 28.3 480.76 24.3 477.5 20.8 473.76 17.84 469.56 15.48 465 13.759 460.16 12.7 455.12 12.36 450 12.7 444.88 13.759 439.84 15.48 435 17.84 430.439 20.8 426.24 24.3 422.5 28.3 419.24 32.679 416.58 37.4 414.54 42.34 413.14 47.44 412.44 52.56 412.44 57.66 413.14 62.64 414.54 64.04 414.68 65.4 414.32 66.54 413.519 254.72 225.34 255.6 224.04 255.9 222.5 255.9 197.88 255.56 196.28 254.62 194.96 251.22 192.88 249.62 191.28 248.42 189.38 247.68 187.24 247.399 184.78 247.399 135.22 247.68 132.76 248.42 130.62 249.62 128.72 251.22 127.12 253.12 125.92 255.26 125.18"/><path d="M 672.72 129.9 697.28 129.9 699.74 130.18 701.18 130.68 702.5 130.9 703.82 130.68 705.26 130.18 707.72 129.9 732.28 129.9 734.74 130.18 736.18 130.68 737.5 130.9 738.82 130.68 740.26 130.18 742.72 129.9 767.28 129.9 769.74 130.18 771.88 130.92 773.78 132.12 775.38 133.72 776.58 135.62 777.32 137.76 777.6 140.22 777.6 189.78 777.32 192.24 776.58 194.38 775.38 196.28 773.78 197.88 770.38 199.96 769.44 201.28 769.1 202.88 769.1 347.5 769.4 349.04 770.28 350.34 933.46 513.519 934.599 514.32 935.96 514.68 937.36 514.54 942.34 513.14 947.44 512.44 952.56 512.44 957.66 513.14 962.6 514.54 967.32 516.58 971.7 519.24 975.699 522.5 979.2 526.24 982.159 530.44 984.52 535 986.24 539.84 987.3 544.88 987.64 550 987.3 555.12 986.24 560.16 984.52 565 982.159 569.56 979.2 573.76 975.699 577.5 971.7 580.76 967.32 583.42 962.6 585.46 957.66 586.86 952.56 587.56 947.44 587.56 942.34 586.86 937.4 585.46 932.68 583.42 928.3 580.76 924.3 577.5 920.8 573.76 917.84 569.56 915.48 565 913.76 560.16 912.7 555.12 912.36 550 912.7 544.88 913.76 539.84 914.52 537.68 914.74 536.22 914.419 534.76 913.58 533.52 745.18 365.12 743.199 362.66 741.86 360.04 741.08 357.16 740.9 354.84 740.9 228.38 740.52 226.68 739.46 225.3 737.92 224.5 736.18 224.44 734.58 225.1 731.04 227.64 727.56 229.259 723.84 230.24 720 230.58 716.16 230.24 712.44 229.259 708.96 227.64 705.42 225.1 703.82 224.44 702.08 224.5 700.54 225.3 699.479 226.68 699.1 228.38 699.1 414.799 698.78 417.92 697.86 420.72 696.36 423.32 694.86 425.08 86.42 1033.52 85.58 1034.76 85.26 1036.22 85.48 1037.68 86.24 1039.84 87.3 1044.88 87.64 1050 87.3 1055.12 86.24 1060.16 84.52 1065 82.16 1069.56 79.2 1073.76 75.7 1077.5 71.7 1080.76 67.32 1083.42 62.6 1085.46 57.66 1086.86 52.56 1087.56 47.44 1087.56 42.34 1086.86 37.4 1085.46 32.679 1083.42 28.3 1080.76 24.3 1077.5 20.8 1073.76 17.84 1069.56 15.48 1065 13.759 1060.16 12.7 1055.12 12.36 1050 12.7 1044.88 13.759 1039.84 15.48 1035 17.84 1030.44 20.8 1026.24 24.3 1022.5 28.3 1019.24 32.679 1016.58 37.4 1014.539 42.34 1013.139 47.44 1012.44 52.56 1012.44 57.66 1013.139 62.64 1014.539 64.04 1014.68 65.4 1014.32 66.54 1013.52 669.72 410.34 670.6 409.04 670.9 407.5 670.9 202.88 670.56 201.28 669.62 199.96 666.22 197.88 664.62 196.28 663.42 194.38 662.68 192.24 662.4 189.78 662.4 140.22 662.68 137.76 663.42 135.62 664.62 133.72 666.22 132.12 668.12 130.92 670.26 130.18"/><path d="M 947.44 212.44 952.56 212.44 957.66 213.14 962.6 214.54 967.32 216.58 971.7 219.24 975.699 222.5 979.2 226.24 982.159 230.44 984.52 235 986.24 239.84 987.3 244.88 987.64 250 987.3 255.12 986.24 260.159 984.52 265 982.159 269.56 979.2 273.76 975.699 277.5 971.7 280.76 967.32 283.42 962.6 285.46 957.66 286.86 952.56 287.56 947.44 287.56 942.34 286.86 937.4 285.46 932.68 283.42 928.3 280.76 924.3 277.5 920.8 273.76 917.84 269.56 915.48 265 913.76 260.159 912.7 255.12 912.36 250 912.7 244.88 913.76 239.84 915.48 235 917.84 230.44 920.8 226.24 924.3 222.5 928.3 219.24 932.68 216.58 937.4 214.54 942.34 213.14"/><path d="M 47.44 312.44 52.56 312.44 57.66 313.14 62.6 314.54 67.32 316.58 71.7 319.24 75.7 322.5 79.2 326.24 82.16 330.439 84.52 335 86.24 339.84 87.3 344.88 87.64 350 87.3 355.12 86.24 360.16 84.52 365 82.16 369.56 79.2 373.76 75.7 377.5 71.7 380.76 67.32 383.42 62.6 385.46 57.66 386.86 52.56 387.56 47.44 387.56 42.34 386.86 37.4 385.46 32.679 383.42 28.3 380.76 24.3 377.5 20.8 373.76 17.84 369.56 15.48 365 13.759 360.16 12.7 355.12 12.36 350 12.7 344.88 13.759 339.84 15.48 335 17.84 330.439 20.8 326.24 24.3 322.5 28.3 319.24 32.679 316.58 37.4 314.54 42.34 313.14"/><path d="M 947.44 312.44 952.56 312.44 957.66 313.14 962.6 314.54 967.32 316.58 971.7 319.24 975.699 322.5 979.2 326.24 982.159 330.439 984.52 335 986.24 339.84 987.3 344.88 987.64 350 987.3 355.12 986.24 360.16 984.52 365 982.159 369.56 979.2 373.76 975.699 377.5 971.7 380.76 967.32 383.42 962.6 385.46 957.66 386.86 952.56 387.56 947.44 387.56 942.34 386.86 937.4 385.46 932.68 383.42 928.3 380.76 924.3 377.5 920.8 373.76 917.84 369.56 915.48 365 913.76 360.16 912.7 355.12 912.36 350 912.7 344.88 913.76 339.84 915.48 335 917.84 330.439 920.8 326.24 924.3 322.5 928.3 319.24 932.68 316.58 937.4 314.54 942.34 313.14"/><path d="M 933.72 416.12 933.72 433.72 916.14 433.72 917.84 430.439 920.8 426.24 924.3 422.5 928.3 419.24 932.68 416.58"/><path d="M 966.28 416.12 967.32 416.58 971.7 419.24 975.699 422.5 979.2 426.24 982.159 430.439 983.86 433.72 966.28 433.72"/><path d="M 916.14 466.28 933.72 466.28 933.72 483.88 932.68 483.42 928.3 480.76 924.3 477.5 920.8 473.76 917.84 469.56"/><path d="M 966.28 466.28 983.86 466.28 982.159 469.56 979.2 473.76 975.699 477.5 971.7 480.76 967.32 483.42 966.28 483.88"/><path d="M 947.44 612.44 952.56 612.44 957.66 613.14 962.6 614.54 967.32 616.58 971.7 619.24 975.699 622.5 979.2 626.24 982.159 630.44 984.52 635 986.24 639.84 987.3 644.88 987.64 650 987.3 655.12 986.24 660.16 984.52 665 982.159 669.56 979.2 673.76 975.699 677.5 971.7 680.759 967.32 683.42 962.6 685.46 957.66 686.86 952.56 687.56 947.44 687.56 942.34 686.86 937.4 685.46 932.68 683.42 928.3 680.759 924.3 677.5 920.8 673.76 917.84 669.56 915.48 665 913.76 660.16 912.7 655.12 912.36 650 912.7 644.88 913.76 639.84 915.48 635 917.84 630.44 920.8 626.24 924.3 622.5 928.3 619.24 932.68 616.58 937.4 614.54 942.34 613.14"/><path d="M 47.44 612.44 52.56 612.44 57.66 613.14 62.6 614.54 67.32 616.58 71.7 619.24 75.7 622.5 79.2 626.24 82.16 630.44 84.52 635 86.24 639.84 87.3 644.88 87.64 650 87.3 655.12 86.24 660.16 84.52 665 82.16 669.56 79.2 673.76 75.7 677.5 71.7 680.759 67.32 683.42 62.6 685.46 57.66 686.86 52.56 687.56 47.44 687.56 42.34 686.86 37.4 685.46 32.679 683.42 28.3 680.759 24.3 677.5 20.8 673.76 17.84 669.56 15.48 665 13.759 660.16 12.7 655.12 12.36 650 12.7 644.88 13.759 639.84 15.48 635 17.84 630.44 20.8 626.24 24.3 622.5 28.3 619.24 32.679 616.58 37.4 614.54 42.34 613.14"/><path d="M 947.44 712.44 952.56 712.44 957.66 713.139 962.6 714.539 967.32 716.58 971.7 719.24 975.699 722.5 979.2 726.24 982.159 730.44 984.52 735 986.24 739.84 987.3 744.88 987.64 750 987.3 755.12 986.24 760.16 984.52 765 982.159 769.56 979.2 773.76 975.699 777.5 971.7 780.759 967.32 783.42 962.6 785.46 957.66 786.86 952.56 787.56 947.44 787.56 942.34 786.86 937.4 785.46 932.68 783.42 928.3 780.759 924.3 777.5 920.8 773.76 917.84 769.56 915.48 765 913.76 760.16 912.7 755.12 912.36 750 912.7 744.88 913.76 739.84 915.48 735 917.84 730.44 920.8 726.24 924.3 722.5 928.3 719.24 932.68 716.58 937.4 714.539 942.34 713.139"/><path d="M 947.44 812.44 952.56 812.44 957.66 813.139 962.6 814.539 967.32 816.58 971.7 819.24 975.699 822.5 979.2 826.24 982.159 830.44 984.52 835 986.24 839.84 987.3 844.88 987.64 850 987.3 855.12 986.24 860.16 984.52 865 982.159 869.56 979.2 873.76 975.699 877.5 971.7 880.759 967.32 883.42 962.6 885.46 957.66 886.86 952.56 887.56 947.44 887.56 942.34 886.86 937.4 885.46 932.68 883.42 928.3 880.759 924.3 877.5 920.8 873.76 917.84 869.56 915.48 865 913.76 860.16 912.7 855.12 912.36 850 912.7 844.88 913.76 839.84 915.48 835 917.84 830.44 920.8 826.24 924.3 822.5 928.3 819.24 932.68 816.58 937.4 814.539 942.34 813.139"/><path d="M 947.44 912.44 952.56 912.44 957.66 913.139 962.6 914.539 967.32 916.58 971.7 919.24 975.699 922.5 979.2 926.24 982.159 930.44 984.52 935 986.24 939.84 987.3 944.88 987.64 950 987.3 955.12 986.24 960.16 984.52 965 982.159 969.56 979.2 973.76 975.699 977.5 971.7 980.759 967.32 983.42 962.6 985.46 957.66 986.86 952.56 987.56 947.44 987.56 942.34 986.86 937.4 985.46 932.68 983.42 928.3 980.759 924.3 977.5 920.8 973.76 917.84 969.56 915.48 965 913.76 960.16 912.7 955.12 912.36 950 912.7 944.88 913.76 939.84 915.48 935 917.84 930.44 920.8 926.24 924.3 922.5 928.3 919.24 932.68 916.58 937.4 914.539 942.34 913.139"/><path d="M 47.44 912.44 52.56 912.44 57.66 913.139 62.6 914.539 67.32 916.58 71.7 919.24 75.7 922.5 79.2 926.24 82.16 930.44 84.52 935 86.24 939.84 87.3 944.88 87.64 950 87.3 955.12 86.24 960.16 84.52 965 82.16 969.56 79.2 973.76 75.7 977.5 71.7 980.759 67.32 983.42 62.6 985.46 57.66 986.86 52.56 987.56 47.44 987.56 42.34 986.86 37.4 985.46 32.679 983.42 28.3 980.759 24.3 977.5 20.8 973.76 17.84 969.56 15.48 965 13.759 960.16 12.7 955.12 12.36 950 12.7 944.88 13.759 939.84 15.48 935 17.84 930.44 20.8 926.24 24.3 922.5 28.3 919.24 32.679 916.58 37.4 914.539 42.34 913.139"/><path d="M 947.44 1012.44 952.56 1012.44 957.66 1013.139 962.6 1014.539 967.32 1016.58 971.7 1019.24 975.699 1022.5 979.2 1026.24 982.159 1030.44 984.52 1035 986.24 1039.84 987.3 1044.88 987.64 1050 987.3 1055.12 986.24 1060.16 984.52 1065 982.159 1069.56 979.2 1073.76 975.699 1077.5 971.7 1080.76 967.32 1083.42 962.6 1085.46 957.66 1086.86 952.56 1087.56 947.44 1087.56 942.34 1086.86 937.4 1085.46 932.68 1083.42 928.3 1080.76 924.3 1077.5 920.8 1073.76 917.84 1069.56 915.48 1065 913.76 1060.16 912.7 1055.12 912.36 1050 912.7 1044.88 913.76 1039.84 915.48 1035 917.84 1030.44 920.8 1026.24 924.3 1022.5 928.3 1019.24 932.68 1016.58 937.4 1014.539 942.34 1013.139"/></g></mask><circle cx="0" cy="0" r="27.55" id="D0gTEms0YWaX4crnmQpw_pad-14"/><circle cx="0" cy="0" r="12" id="D0gTEms0YWaX4crnmQpw_pad-12"/><circle cx="0" cy="0" r="31.55" id="OlsPlXAmr_DLsWDmN-48_pad-20"/><circle cx="0" cy="0" r="6" id="sG2M875vX2EV_MYF4oi7_pad-1"/><circle cx="0" cy="0" r="19.5" id="sG2M875vX2EV_MYF4oi7_pad-2"/><g id="EAAkFM-HclNvTWwTSthK_bottom_copper"><g mask="url(#D0gTEms0YWaX4crnmQpw_clear-1)"><path d="M 84 5 82.46 5.3 81.18 6.18 80.3 7.46 80 9 80 274.6 79.6 275 75.44 275 74.54 275.1 4.1 275.1 2.56 275.4 1.28 276.28 0.4 277.56 0.1 279.1 0.1 1120.9 0.4 1122.44 1.28 1123.72 2.56 1124.6 4.1 1124.9 995.9 1124.9 997.44 1124.6 998.72 1123.72 999.599 1122.44 999.9 1120.9 999.9 9 999.599 7.46 998.72 6.18 997.44 5.3 995.9 5"/></g><path d="M 50 550 315.5 550 M 720 208.499 720 165 M 50 750 190.3 609.699 256.799 609.699 M 305 160 305 265.3 232.699 337.6 M 50 850 340 560 340 160 M 50 450 270 230 270 160 M 50 1050 685 415 685 165 M 950 550 755 355 755 165" fill="none" stroke-width="8"/><path d="M 352.5 185 327.5 185 327.5 135 352.5 135"/><path d="M 317.5 185 292.5 185 292.5 135 317.5 135"/><path d="M 282.5 185 257.5 185 257.5 135 282.5 135"/><path d="M 767.5 190 742.5 190 742.5 140 767.5 140"/><path d="M 732.5 190 707.5 190 707.5 140 732.5 140"/><path d="M 697.5 190 672.5 190 672.5 140 697.5 140"/><use xlink:href="#D0gTEms0YWaX4crnmQpw_pad-14" x="950" y="250"/><use xlink:href="#D0gTEms0YWaX4crnmQpw_pad-14" x="950" y="150"/><use xlink:href="#D0gTEms0YWaX4crnmQpw_pad-14" x="50" y="450"/><use xlink:href="#D0gTEms0YWaX4crnmQpw_pad-14" x="50" y="550"/><use xlink:href="#D0gTEms0YWaX4crnmQpw_pad-14" x="50" y="650"/><use xlink:href="#D0gTEms0YWaX4crnmQpw_pad-14" x="50" y="750"/><use xlink:href="#D0gTEms0YWaX4crnmQpw_pad-14" x="50" y="850"/><use xlink:href="#D0gTEms0YWaX4crnmQpw_pad-14" x="50" y="950"/><use xlink:href="#D0gTEms0YWaX4crnmQpw_pad-14" x="50" y="1050"/><use xlink:href="#D0gTEms0YWaX4crnmQpw_pad-14" x="950" y="450"/><use xlink:href="#D0gTEms0YWaX4crnmQpw_pad-14" x="950" y="550"/><use xlink:href="#D0gTEms0YWaX4crnmQpw_pad-14" x="950" y="650"/><use xlink:href="#D0gTEms0YWaX4crnmQpw_pad-14" x="950" y="750"/><use xlink:href="#D0gTEms0YWaX4crnmQpw_pad-14" x="950" y="850"/><use xlink:href="#D0gTEms0YWaX4crnmQpw_pad-14" x="950" y="950"/><use xlink:href="#D0gTEms0YWaX4crnmQpw_pad-14" x="950" y="1050"/><use xlink:href="#D0gTEms0YWaX4crnmQpw_pad-14" x="50" y="350"/><use xlink:href="#D0gTEms0YWaX4crnmQpw_pad-14" x="950" y="350"/><use xlink:href="#D0gTEms0YWaX4crnmQpw_pad-12" x="315.5" y="550"/><use xlink:href="#D0gTEms0YWaX4crnmQpw_pad-12" x="720" y="208.499"/><use xlink:href="#D0gTEms0YWaX4crnmQpw_pad-12" x="256.799" y="609.699"/><use xlink:href="#D0gTEms0YWaX4crnmQpw_pad-12" x="232.699" y="337.6"/></g><g id="EAAkFM-HclNvTWwTSthK_bottom_soldermask"><use xlink:href="#OlsPlXAmr_DLsWDmN-48_pad-20" x="950" y="250"/><use xlink:href="#OlsPlXAmr_DLsWDmN-48_pad-20" x="950" y="150"/><path d="M 323.499 130.999 323.499 189 356.5 189 356.5 130.999"/><path d="M 288.499 130.999 288.499 189 321.5 189 321.5 130.999"/><path d="M 253.499 130.999 253.499 189 286.5 189 286.5 130.999"/><path d="M 738.5 135.999 738.5 194 771.499 194 771.499 135.999"/><path d="M 703.5 135.999 703.5 194 736.499 194 736.499 135.999"/><path d="M 668.5 135.999 668.5 194 701.499 194 701.499 135.999"/><use xlink:href="#OlsPlXAmr_DLsWDmN-48_pad-20" x="50" y="450"/><use xlink:href="#OlsPlXAmr_DLsWDmN-48_pad-20" x="50" y="550"/><use xlink:href="#OlsPlXAmr_DLsWDmN-48_pad-20" x="50" y="650"/><use xlink:href="#OlsPlXAmr_DLsWDmN-48_pad-20" x="50" y="750"/><use xlink:href="#OlsPlXAmr_DLsWDmN-48_pad-20" x="50" y="850"/><use xlink:href="#OlsPlXAmr_DLsWDmN-48_pad-20" x="50" y="950"/><use xlink:href="#OlsPlXAmr_DLsWDmN-48_pad-20" x="50" y="1050"/><use xlink:href="#OlsPlXAmr_DLsWDmN-48_pad-20" x="950" y="450"/><use xlink:href="#OlsPlXAmr_DLsWDmN-48_pad-20" x="950" y="550"/><use xlink:href="#OlsPlXAmr_DLsWDmN-48_pad-20" x="950" y="650"/><use xlink:href="#OlsPlXAmr_DLsWDmN-48_pad-20" x="950" y="750"/><use xlink:href="#OlsPlXAmr_DLsWDmN-48_pad-20" x="950" y="850"/><use xlink:href="#OlsPlXAmr_DLsWDmN-48_pad-20" x="950" y="950"/><use xlink:href="#OlsPlXAmr_DLsWDmN-48_pad-20" x="950" y="1050"/><use xlink:href="#OlsPlXAmr_DLsWDmN-48_pad-20" x="50" y="350"/><use xlink:href="#OlsPlXAmr_DLsWDmN-48_pad-20" x="950" y="350"/></g><g id="EAAkFM-HclNvTWwTSthK_bottom_solderpaste"><path d="M 352.5 185 327.5 185 327.5 135 352.5 135"/><path d="M 317.5 185 292.5 185 292.5 135 317.5 135"/><path d="M 282.5 185 257.5 185 257.5 135 282.5 135"/><path d="M 767.5 190 742.5 190 742.5 140 767.5 140"/><path d="M 732.5 190 707.5 190 707.5 140 732.5 140"/><path d="M 697.5 190 672.5 190 672.5 140 697.5 140"/></g><g id="EAAkFM-HclNvTWwTSthK_bottom_silkscreen"><path d="M 255.455 1075 255.455 1027.273 M 255.455 1075 235 1075 228.182 1072.726 225.909 1070.453 223.636 1065.909 223.636 1061.363 225.909 1056.817 228.182 1054.544 235 1052.273 255.455 1052.273 M 239.546 1052.273 223.636 1027.273 M 176.817 1068.182 181.363 1072.726 188.182 1075 197.273 1075 204.09 1072.726 208.636 1068.182 208.636 1063.636 206.363 1059.09 204.09 1056.817 199.546 1054.544 185.909 1050 181.363 1047.726 179.09 1045.453 176.817 1040.909 176.817 1034.09 181.363 1029.544 188.182 1027.273 197.273 1027.273 204.09 1029.544 208.636 1034.09 M 145.909 1075 145.909 1027.273 M 161.817 1075 130 1075 M 195 975 213.182 927.271 M 195 975 176.819 927.271 M 206.363 943.18 183.636 943.18 M 148.182 975 155 972.726 159.546 965.909 161.819 954.544 161.819 947.726 159.546 936.363 155 929.544 148.182 927.271 143.636 927.271 136.819 929.544 132.273 936.363 130 947.726 130 954.544 132.273 965.909 136.819 972.726 143.636 975 148.182 975 M 209.981 872.3 209.981 824.571 M 209.981 872.3 194.072 872.3 187.255 870.027 182.708 865.482 180.437 860.936 178.164 854.117 178.164 842.753 180.437 835.936 182.708 831.39 187.255 826.844 194.072 824.571 209.981 824.571 M 149.526 872.3 156.345 870.027 160.891 863.209 163.164 851.844 163.164 845.027 160.891 833.663 156.345 826.844 149.526 824.571 144.981 824.571 138.164 826.844 133.618 833.663 131.345 845.027 131.345 851.844 133.618 863.209 138.164 870.027 144.981 872.3 149.526 872.3 M 375.453 759.09 379.998 763.634 386.817 765.907 395.907 765.907 402.726 763.634 407.271 759.09 407.271 754.544 404.998 749.998 402.726 747.725 398.18 745.453 384.544 740.907 379.998 738.634 377.726 736.363 375.453 731.817 375.453 724.998 379.998 720.453 386.817 718.18 395.907 718.18 402.726 720.453 407.271 724.998 M 326.363 754.544 328.636 759.09 333.18 763.634 337.726 765.907 346.817 765.907 351.363 763.634 355.907 759.09 358.18 754.544 360.453 747.725 360.453 736.363 358.18 729.544 355.907 724.998 351.363 720.453 346.817 718.18 337.726 718.18 333.18 720.453 328.636 724.998 326.363 729.544 M 311.363 765.907 311.363 718.18 M 279.544 765.907 311.363 734.09 M 299.998 745.453 279.544 718.18 M 223.636 774.998 264.544 702.271 M 208.636 765.907 208.636 718.18 M 208.636 765.907 192.726 765.907 185.907 763.634 181.363 759.09 179.09 754.544 176.817 747.725 176.817 736.363 179.09 729.544 181.363 724.998 185.907 720.453 192.726 718.18 208.636 718.18 M 134.544 765.907 157.271 765.907 159.544 745.453 157.271 747.725 150.453 749.998 143.636 749.998 136.817 747.725 132.271 743.18 129.998 736.363 129.998 731.817 132.271 724.998 136.817 720.453 143.636 718.18 150.453 718.18 157.271 720.453 159.544 722.725 161.817 727.271 M 426.817 665.907 426.817 618.18 M 426.817 665.907 408.636 618.18 M 390.453 665.907 408.636 618.18 M 390.453 665.907 390.453 618.18 M 375.453 665.907 375.453 618.18 M 328.636 659.09 333.182 663.634 340 665.907 349.09 665.907 355.909 663.634 360.453 659.09 360.453 654.544 358.182 649.998 355.909 647.725 351.363 645.453 337.726 640.907 333.182 638.634 330.909 636.363 328.636 631.817 328.636 624.998 333.182 620.453 340 618.18 349.09 618.18 355.909 620.453 360.453 624.998 M 300 665.907 304.544 663.634 309.09 659.09 311.363 654.544 313.636 647.725 313.636 636.363 311.363 629.544 309.09 624.998 304.544 620.453 300 618.18 290.909 618.18 286.363 620.453 281.817 624.998 279.544 629.544 277.271 636.363 277.271 647.725 279.544 654.544 281.817 659.09 286.363 663.634 290.909 665.907 300 665.907 M 221.363 674.998 262.271 602.271 M 206.363 665.907 206.363 618.18 M 206.363 665.907 190.453 665.907 183.636 663.634 179.09 659.09 176.817 654.544 174.544 647.725 174.544 636.363 176.817 629.544 179.09 624.998 183.636 620.453 190.453 618.18 206.363 618.18 M 132.271 659.09 134.544 663.634 141.363 665.907 145.909 665.907 152.726 663.634 157.271 656.817 159.544 645.453 159.544 634.09 157.271 624.998 152.726 620.453 145.909 618.18 143.636 618.18 136.817 620.453 132.271 624.998 130 631.817 130 634.09 132.271 640.907 136.817 645.453 143.636 647.725 145.909 647.725 152.726 645.453 157.271 640.907 159.544 634.09 M 419.09 565.907 419.09 518.18 M 419.09 565.907 400.909 518.18 M 382.726 565.907 400.909 518.18 M 382.726 565.907 382.726 518.18 M 354.09 565.907 358.636 563.634 363.182 559.09 365.455 554.544 367.726 547.725 367.726 536.363 365.455 529.544 363.182 524.998 358.636 520.453 354.09 518.18 345 518.18 340.455 520.453 335.909 524.998 333.636 529.544 331.363 536.363 331.363 547.725 333.636 554.544 335.909 559.09 340.455 563.634 345 565.907 354.09 565.907 M 284.544 559.09 289.09 563.634 295.909 565.907 305 565.907 311.817 563.634 316.363 559.09 316.363 554.544 314.09 549.998 311.817 547.725 307.273 545.453 293.636 540.907 289.09 538.634 286.817 536.363 284.544 531.817 284.544 524.998 289.09 520.453 295.909 518.18 305 518.18 311.817 520.453 316.363 524.998 M 269.544 565.907 269.544 518.18 M 213.636 574.998 254.544 502.271 M 198.636 565.907 198.636 518.18 M 198.636 565.907 182.726 565.907 175.909 563.634 171.363 559.09 169.09 554.544 166.817 547.725 166.817 536.363 169.09 529.544 171.363 524.998 175.909 520.453 182.726 518.18 198.636 518.18 M 120 565.907 142.726 518.18 M 151.817 565.907 120 565.907 M 316.365 454.544 318.636 459.09 323.182 463.634 327.728 465.907 336.819 465.907 341.365 463.634 345.909 459.09 348.182 454.544 350.455 447.725 350.455 436.363 348.182 429.544 345.909 424.998 341.365 420.453 336.819 418.18 327.728 418.18 323.182 420.453 318.636 424.998 316.365 429.544 M 269.546 459.09 274.092 463.634 280.909 465.907 290.001 465.907 296.819 463.634 301.365 459.09 301.365 454.544 299.092 449.998 296.819 447.725 292.274 445.453 278.636 440.907 274.092 438.634 271.819 436.363 269.546 431.817 269.546 424.998 274.092 420.453 280.909 418.18 290.001 418.18 296.819 420.453 301.365 424.998 M 213.636 474.998 254.546 402.271 M 198.636 465.907 198.636 418.18 M 198.636 465.907 182.728 465.907 175.909 463.634 171.365 459.09 169.092 454.544 166.819 447.725 166.819 436.363 169.092 429.544 171.365 424.998 175.909 420.453 182.728 418.18 198.636 418.18 M 140.455 465.907 147.274 463.634 149.546 459.09 149.546 454.544 147.274 449.998 142.728 447.725 133.636 445.453 126.819 443.18 122.274 438.634 120.001 434.09 120.001 427.271 122.274 422.725 124.546 420.453 131.365 418.18 140.455 418.18 147.274 420.453 149.546 422.725 151.819 427.271 151.819 434.09 149.546 438.634 145.001 443.18 138.182 445.453 129.092 447.725 124.546 449.998 122.274 454.544 122.274 459.09 124.546 463.634 131.365 465.907 140.455 465.907 M 255.453 375 230.453 375 244.09 356.817 237.271 356.817 232.725 354.544 230.453 352.273 228.18 345.453 228.18 340.909 230.453 334.09 234.998 329.544 241.817 327.273 248.634 327.273 255.453 329.544 257.725 331.817 259.998 336.363 M 213.18 375 194.998 327.273 M 176.817 375 194.998 327.273 M 157.271 375 132.271 375 145.907 356.817 139.09 356.817 134.544 354.544 132.271 352.273 129.998 345.453 129.998 340.909 132.271 334.09 136.817 329.544 143.634 327.273 150.453 327.273 157.271 329.544 159.544 331.817 161.817 336.363 M 874.072 1072.3 874.072 1024.571 M 889.982 1072.3 858.163 1072.3 M 843.163 1056.39 818.163 1024.571 M 818.163 1056.39 843.163 1024.571 M 803.163 1072.3 803.163 1024.571 M 803.163 1072.3 787.254 1072.3 780.437 1070.027 775.891 1065.482 773.617 1060.936 771.346 1054.117 771.346 1042.753 773.617 1035.936 775.891 1031.39 780.437 1026.844 787.254 1024.571 803.163 1024.571 M 889.982 972.3 889.982 924.571 M 889.982 972.3 869.526 972.3 862.709 970.027 860.437 967.753 858.163 963.209 858.163 958.663 860.437 954.117 862.709 951.844 869.526 949.571 889.982 949.571 M 874.072 949.571 858.163 924.571 M 843.163 956.39 818.163 924.571 M 818.163 956.39 843.163 924.571 M 803.163 972.3 803.163 924.571 M 803.163 972.3 787.254 972.3 780.437 970.027 775.891 965.482 773.617 960.936 771.346 954.117 771.346 942.753 773.617 935.936 775.891 931.39 780.437 926.844 787.254 924.571 803.163 924.571 M 889.982 872.3 889.982 824.571 M 889.982 872.3 874.072 872.3 867.254 870.027 862.709 865.482 860.437 860.936 858.163 854.117 858.163 842.753 860.437 835.936 862.709 831.39 867.254 826.844 874.072 824.571 889.982 824.571 M 843.163 863.209 838.617 865.482 831.8 872.3 831.8 824.571 M 775.891 881.39 816.8 808.663 M 729.072 865.482 733.617 870.027 740.437 872.3 749.526 872.3 756.346 870.027 760.891 865.482 760.891 860.936 758.617 856.39 756.346 854.117 751.8 851.844 738.163 847.3 733.617 845.027 731.346 842.753 729.072 838.209 729.072 831.39 733.617 826.844 740.437 824.571 749.526 824.571 756.346 826.844 760.891 831.39 M 679.982 860.936 682.254 865.482 686.8 870.027 691.346 872.3 700.437 872.3 704.982 870.027 709.526 865.482 711.8 860.936 714.072 854.117 714.072 842.753 711.8 835.936 709.526 831.39 704.982 826.844 700.437 824.571 691.346 824.571 686.8 826.844 682.254 831.39 679.982 835.936 M 664.982 872.3 664.982 824.571 637.709 824.571 M 889.982 772.3 889.982 724.571 M 889.982 772.3 874.072 772.3 867.254 770.027 862.709 765.482 860.437 760.936 858.163 754.117 858.163 742.753 860.437 735.936 862.709 731.39 867.254 726.844 874.072 724.571 889.982 724.571 M 840.891 760.936 840.891 763.209 838.617 767.753 836.346 770.027 831.8 772.3 822.709 772.3 818.163 770.027 815.891 767.753 813.617 763.209 813.617 758.663 815.891 754.117 820.437 747.3 843.163 724.571 811.346 724.571 M 755.437 781.39 796.346 708.663 M 708.617 765.482 713.163 770.027 719.982 772.3 729.072 772.3 735.891 770.027 740.437 765.482 740.437 760.936 738.163 756.39 735.891 754.117 731.346 751.844 717.709 747.3 713.163 745.027 710.891 742.753 708.617 738.209 708.617 731.39 713.163 726.844 719.982 724.571 729.072 724.571 735.891 726.844 740.437 731.39 M 693.617 772.3 693.617 724.571 M 693.617 772.3 677.709 772.3 670.891 770.027 666.346 765.482 664.072 760.936 661.8 754.117 661.8 742.753 664.072 735.936 666.346 731.39 670.891 726.844 677.709 724.571 693.617 724.571 M 628.617 772.3 646.8 724.571 M 628.617 772.3 610.437 724.571 M 639.982 740.482 617.254 740.482 M 889.982 672.3 889.982 624.571 M 889.982 672.3 874.072 672.3 867.254 670.027 862.709 665.482 860.437 660.936 858.163 654.117 858.163 642.753 860.437 635.936 862.709 631.39 867.254 626.844 874.072 624.571 889.982 624.571 M 838.617 672.3 813.617 672.3 827.254 654.117 820.437 654.117 815.891 651.844 813.617 649.571 811.346 642.753 811.346 638.209 813.617 631.39 818.163 626.844 824.982 624.571 831.8 624.571 838.617 626.844 840.891 629.117 843.163 633.663 M 755.437 681.39 796.346 608.663 M 740.437 672.3 740.437 624.571 M 725.437 672.3 725.437 624.571 M 725.437 672.3 693.617 624.571 M 693.617 672.3 693.617 624.571 M 662.709 672.3 662.709 624.571 M 678.617 672.3 646.8 672.3 M 889.982 572.3 889.982 524.571 M 889.982 572.3 874.072 572.3 867.254 570.027 862.709 565.482 860.437 560.936 858.163 554.117 858.163 542.753 860.437 535.936 862.709 531.39 867.254 526.844 874.072 524.571 889.982 524.571 M 820.437 572.3 843.163 540.482 809.072 540.482 M 820.437 572.3 820.437 524.571 M 753.163 581.39 794.072 508.663 M 738.163 572.3 738.163 524.571 M 738.163 572.3 717.709 572.3 710.891 570.027 708.617 567.753 706.346 563.209 706.346 558.663 708.617 554.117 710.891 551.844 717.709 549.571 738.163 549.571 M 722.254 549.571 706.346 524.571 M 691.346 572.3 691.346 524.571 M 691.346 572.3 661.8 572.3 M 691.346 549.571 673.163 549.571 M 691.346 524.571 661.8 524.571 M 614.982 565.482 619.526 570.027 626.346 572.3 635.437 572.3 642.254 570.027 646.8 565.482 646.8 560.936 644.526 556.39 642.254 554.117 637.709 551.844 624.072 547.3 619.526 545.027 617.254 542.753 614.982 538.209 614.982 531.39 619.526 526.844 626.346 524.571 635.437 524.571 642.254 526.844 646.8 531.39 M 599.982 572.3 599.982 524.571 M 599.982 572.3 570.437 572.3 M 599.982 549.571 581.8 549.571 M 599.982 524.571 570.437 524.571 M 539.526 572.3 539.526 524.571 M 555.437 572.3 523.617 572.3 M 855.891 460.936 858.163 465.482 862.709 470.027 867.254 472.3 876.346 472.3 880.891 470.027 885.437 465.482 887.709 460.936 889.982 454.117 889.982 442.753 887.709 435.936 885.437 431.39 880.891 426.844 876.346 424.571 867.254 424.571 862.709 426.844 858.163 431.39 855.891 435.936 855.891 442.753 M 867.254 442.753 855.891 442.753 M 840.891 472.3 840.891 424.571 M 840.891 472.3 809.072 424.571 M 809.072 472.3 809.072 424.571 M 794.072 472.3 794.072 424.571 M 794.072 472.3 778.163 472.3 771.346 470.027 766.8 465.482 764.526 460.936 762.254 454.117 762.254 442.753 764.526 435.936 766.8 431.39 771.346 426.844 778.163 424.571 794.072 424.571 M 862.709 372.3 885.437 372.3 887.709 351.844 885.437 354.117 878.617 356.39 871.8 356.39 864.982 354.117 860.437 349.571 858.163 342.753 858.163 338.209 860.437 331.39 864.982 326.844 871.8 324.571 878.617 324.571 885.437 326.844 887.709 329.117 889.982 333.663 M 843.163 372.3 824.982 324.571 M 806.8 372.3 824.982 324.571" fill="none" stroke-width="10"/><path d="M 864.727 184.998 864.727 146.817 M 864.727 184.998 851.999 184.998 846.544 183.18 842.908 179.544 841.09 175.907 839.272 170.453 839.272 161.363 841.09 155.907 842.908 152.271 846.544 148.634 851.999 146.817 864.727 146.817 M 809.09 184.998 827.272 159.544 800 159.544 M 809.09 184.998 809.09 146.817 M 640.363 185 640.363 146.817 M 640.363 185 623.999 185 618.545 183.182 616.728 181.363 614.908 177.726 614.908 174.09 616.728 170.455 618.545 168.636 623.999 166.817 640.363 166.817 M 627.637 166.817 614.908 146.817 M 577.454 179.544 581.09 183.182 586.545 185 593.818 185 599.273 183.182 602.908 179.544 602.908 175.909 601.09 172.273 599.273 170.455 595.636 168.636 584.727 165 581.09 163.182 579.273 161.363 577.454 157.726 577.454 152.273 581.09 148.636 586.545 146.817 593.818 146.817 599.273 148.636 602.908 152.273 M 552.727 185 552.727 146.817 M 565.455 185 540 185 M 452.908 185.001 452.908 146.819 M 452.908 185.001 440.18 185.001 434.726 183.182 431.089 179.546 429.272 175.909 427.453 170.455 427.453 161.365 429.272 155.909 431.089 152.274 434.726 148.636 440.18 146.819 452.908 146.819 M 404.544 185.001 409.998 183.182 413.636 177.728 415.453 168.636 415.453 163.182 413.636 154.092 409.998 148.636 404.544 146.819 400.907 146.819 395.453 148.636 391.817 154.092 389.998 163.182 389.998 168.636 391.817 177.728 395.453 183.182 400.907 185.001 404.544 185.001 M 220.007 176.801 220.007 138.618 M 220.007 176.801 207.28 176.801 201.826 174.983 198.189 171.347 196.372 167.71 194.553 162.256 194.553 153.164 196.372 147.71 198.189 144.074 201.826 140.437 207.28 138.618 220.007 138.618 M 173.463 176.801 178.917 174.983 180.734 171.347 180.734 167.71 178.917 164.074 175.28 162.256 168.007 160.437 162.552 158.618 158.917 154.983 157.098 151.347 157.098 145.891 158.917 142.256 160.734 140.437 166.19 138.618 173.463 138.618 178.917 140.437 180.734 142.256 182.552 145.891 182.552 151.347 180.734 154.983 177.098 158.618 171.644 160.437 164.371 162.256 160.734 164.074 158.917 167.71 158.917 171.347 160.734 174.983 166.19 176.801 173.463 176.801 M 811.638 105 811.638 66.817 M 811.638 105 795.275 105 789.819 103.182 788.001 101.363 786.184 97.726 786.184 94.09 788.001 90.453 789.819 88.636 795.275 86.817 811.638 86.817 M 798.91 86.817 786.184 66.817 M 774.183 105 774.183 66.817 M 774.183 105 750.546 105 M 774.183 86.817 759.638 86.817 M 774.183 66.817 750.546 66.817 M 713.092 99.544 716.728 103.182 722.183 105 729.457 105 734.911 103.182 738.546 99.544 738.546 95.909 736.728 92.273 734.911 90.453 731.274 88.636 720.366 85 716.728 83.182 714.911 81.363 713.092 77.726 713.092 72.273 716.728 68.636 722.183 66.817 729.457 66.817 734.911 68.636 738.546 72.273 M 701.093 105 701.093 66.817 M 701.093 105 677.457 105 M 701.093 86.817 686.547 86.817 M 701.093 66.817 677.457 66.817 M 652.728 105 652.728 66.817 M 665.456 105 640.002 105 M 307.454 95.909 309.272 99.546 312.91 103.182 316.545 105.001 323.818 105.001 327.454 103.182 331.091 99.546 332.91 95.909 334.728 90.455 334.728 81.365 332.91 75.909 331.091 72.274 327.454 68.636 323.818 66.819 316.545 66.819 312.91 68.636 309.272 72.274 307.454 75.909 M 270.001 99.546 273.636 103.182 279.092 105.001 286.363 105.001 291.819 103.182 295.455 99.546 295.455 95.909 293.636 92.274 291.819 90.455 288.182 88.636 277.273 85.001 273.636 83.182 271.819 81.365 270.001 77.728 270.001 72.274 273.636 68.636 279.092 66.819 286.363 66.819 291.819 68.636 295.455 72.274" fill="none" stroke-width="8"/><path d="M 322.698 263.899 326.799 268 332.899 270 341.098 270 347.199 268 351.298 263.899 351.298 259.8 349.299 255.7 347.199 253.699 343.099 251.599 330.799 247.5 326.799 245.5 324.699 243.499 322.698 239.4 322.698 233.2 326.799 229.099 332.899 227.1 341.098 227.1 347.199 229.099 351.298 233.2 M 288.699 270 288.699 237.3 290.799 231.199 292.799 229.099 296.898 227.1 300.999 227.1 305.099 229.099 307.098 231.199 309.198 237.3 309.198 241.399 M 275.198 261.9 271.098 263.899 264.998 270 264.998 227.1 M 746.102 268.899 750.201 273 756.301 275 764.502 275 770.601 273 774.701 268.899 774.701 264.8 772.701 260.7 770.601 258.699 766.502 256.599 754.201 252.5 750.201 250.5 748.101 248.499 746.102 244.4 746.102 238.2 750.201 234.099 756.301 232.1 764.502 232.1 770.601 234.099 774.701 238.2 M 712.102 275 712.102 242.3 714.201 236.199 716.202 234.099 720.302 232.1 724.402 232.1 728.501 234.099 730.501 236.199 732.601 242.3 732.601 246.399 M 696.602 264.8 696.602 266.9 694.502 270.999 692.502 273 688.401 275 680.201 275 676.102 273 674.102 270.999 672.002 266.9 672.002 262.8 674.102 258.699 678.202 252.5 698.602 232.1 670.002 232.1" fill="none" stroke-width="7"/><path d="M 255 120 355 120 M 245 130 245 190 M 365 130 365 190 M 355 200 255 200 M 670 125 770 125 M 660 135 660 195 M 780 135 780 195 M 770 205 670 205 M 255 200 A 10 10 0 0 1 245 190 M 365 190 A 10 10 0 0 1 355 200 M 365 130 A 10 10 0 0 0 355 120 M 255 120 A 10 10 0 0 0 245 130 M 670 205 A 10 10 0 0 1 660 195 M 780 195 A 10 10 0 0 1 770 205 M 780 135 A 10 10 0 0 0 770 125 M 670 125 A 10 10 0 0 0 660 135" fill="none" stroke-width="10"/></g><g id="EAAkFM-HclNvTWwTSthK_bottom_drill1"><use xlink:href="#sG2M875vX2EV_MYF4oi7_pad-1" x="315.5" y="550"/><use xlink:href="#sG2M875vX2EV_MYF4oi7_pad-1" x="720" y="208.5"/><use xlink:href="#sG2M875vX2EV_MYF4oi7_pad-1" x="256.8" y="609.7"/><use xlink:href="#sG2M875vX2EV_MYF4oi7_pad-1" x="232.7" y="337.6"/><use xlink:href="#sG2M875vX2EV_MYF4oi7_pad-2" x="950" y="250"/><use xlink:href="#sG2M875vX2EV_MYF4oi7_pad-2" x="950" y="150"/><use xlink:href="#sG2M875vX2EV_MYF4oi7_pad-2" x="50" y="450"/><use xlink:href="#sG2M875vX2EV_MYF4oi7_pad-2" x="50" y="550"/><use xlink:href="#sG2M875vX2EV_MYF4oi7_pad-2" x="50" y="650"/><use xlink:href="#sG2M875vX2EV_MYF4oi7_pad-2" x="50" y="750"/><use xlink:href="#sG2M875vX2EV_MYF4oi7_pad-2" x="50" y="850"/><use xlink:href="#sG2M875vX2EV_MYF4oi7_pad-2" x="50" y="950"/><use xlink:href="#sG2M875vX2EV_MYF4oi7_pad-2" x="50" y="1050"/><use xlink:href="#sG2M875vX2EV_MYF4oi7_pad-2" x="950" y="450"/><use xlink:href="#sG2M875vX2EV_MYF4oi7_pad-2" x="950" y="550"/><use xlink:href="#sG2M875vX2EV_MYF4oi7_pad-2" x="950" y="650"/><use xlink:href="#sG2M875vX2EV_MYF4oi7_pad-2" x="950" y="750"/><use xlink:href="#sG2M875vX2EV_MYF4oi7_pad-2" x="950" y="850"/><use xlink:href="#sG2M875vX2EV_MYF4oi7_pad-2" x="950" y="950"/><use xlink:href="#sG2M875vX2EV_MYF4oi7_pad-2" x="950" y="1050"/><use xlink:href="#sG2M875vX2EV_MYF4oi7_pad-2" x="50" y="350"/><use xlink:href="#sG2M875vX2EV_MYF4oi7_pad-2" x="950" y="350"/></g><clipPath id="EAAkFM-HclNvTWwTSthK_bottom_outline"><path d="M 0 1125 1000 1125 1000 0 75 0 75 95 75 275 0 275 0 1125" fill="none" stroke-width="10"/></clipPath><mask id="EAAkFM-HclNvTWwTSthK_bottom_mech-mask"><g fill="#000" stroke="#000"><rect x="0" y="0" width="1000" height="1125" fill="#fff"/><use xlink:href="#EAAkFM-HclNvTWwTSthK_bottom_drill1"/></g></mask><mask id="EAAkFM-HclNvTWwTSthK_bottom_cf-mask"><g fill="#fff" stroke="#fff"><use xlink:href="#EAAkFM-HclNvTWwTSthK_bottom_soldermask"/></g></mask><mask id="EAAkFM-HclNvTWwTSthK_bottom_sm-mask"><g fill="#000" stroke="#000"><rect x="0" y="0" width="1000" height="1125" fill="#fff"/><use xlink:href="#EAAkFM-HclNvTWwTSthK_bottom_soldermask"/></g></mask></defs><g transform="translate(0,1125) scale(1,-1)"><g mask="url(#EAAkFM-HclNvTWwTSthK_bottom_mech-mask)" clip-path="url(#EAAkFM-HclNvTWwTSthK_bottom_outline)" transform="translate(1000,0) scale(-1,1)"><rect x="0" y="0" width="1000" height="1125" fill="currentColor" class="EAAkFM-HclNvTWwTSthK_fr4"/><use xlink:href="#EAAkFM-HclNvTWwTSthK_bottom_copper" fill="currentColor" stroke="currentColor" class="EAAkFM-HclNvTWwTSthK_cu"/><use xlink:href="#EAAkFM-HclNvTWwTSthK_bottom_copper" fill="currentColor" stroke="currentColor" class="EAAkFM-HclNvTWwTSthK_cf" mask="url(#EAAkFM-HclNvTWwTSthK_bottom_cf-mask)"/><g mask="url(#EAAkFM-HclNvTWwTSthK_bottom_sm-mask)"><rect x="0" y="0" width="1000" height="1125" fill="currentColor" class="EAAkFM-HclNvTWwTSthK_sm"/><use xlink:href="#EAAkFM-HclNvTWwTSthK_bottom_silkscreen" fill="currentColor" stroke="currentColor" class="EAAkFM-HclNvTWwTSthK_ss"/></g><use xlink:href="#EAAkFM-HclNvTWwTSthK_bottom_solderpaste" fill="currentColor" stroke="currentColor" class="EAAkFM-HclNvTWwTSthK_sp"/></g></g></svg>