<svg version="1.1" xmlns="http://www.w3.org/2000/svg" xmlns:xlink="http://www.w3.org/1999/xlink" stroke-linecap="round" stroke-linejoin="round" stroke-width="0" fill-rule="evenodd" clip-rule="evenodd" id="EAAkFM-HclNvTWwTSthK_top" viewBox="0 0 1000 1125" width="1in" height="1.125in" class="w-100 h-100"><defs><style>.EAAkFM-HclNvTWwTSthK_fr4 {color: #666666;}
.EAAkFM-HclNvTWwTSthK_cu {color: #cccccc;}
.EAAkFM-HclNvTWwTSthK_cf {color: #cc9933;}
.EAAkFM-HclNvTWwTSthK_sm {color: #004200; opacity: 0.75;}
.EAAkFM-HclNvTWwTSthK_ss {color: #ffffff;}
.EAAkFM-HclNvTWwTSthK_sp {color: #999999;}
.EAAkFM-HclNvTWwTSthK_out {color: #000000;}</style><circle cx="0" cy="0" r="31.55" id="Jp3xlSDUCECFLgdkWXnW_pad-20"/><rect x="-40.25" y="-40.25" width="80.5" height="80.5" id="MmcDmViEF0aEw2W8Utmn_pad-13"/><circle cx="0" cy="0" r="27.55" id="MmcDmViEF0aEw2W8Utmn_pad-14"/><circle cx="0" cy="0" r="12" id="MmcDmViEF0aEw2W8Utmn_pad-12"/><rect x="-40.25" y="-40.25" width="80.5" height="80.5" id="eZXIQYCmpe3kk6mpZW5a_pad-13"/><circle cx="0" cy="0" r="6" id="sG2M875vX2EV_MYF4oi7_pad-1"/><circle cx="0" cy="0" r="19.5" id="sG2M875vX2EV_MYF4oi7_pad-2"/><g id="EAAkFM-HclNvTWwTSthK_top_soldermask"><use xlink:href="#Jp3xlSDUCECFLgdkWXnW_pad-20" x="950" y="250"/><use xlink:href="#Jp3xlSDUCECFLgdkWXnW_pad-20" x="950" y="150"/><path d="M 805.799 520.7 805.799 609.2 894.2 609.2 894.2 520.7"/><path d="M 805.799 620.7 805.799 709.2 894.2 709.2 894.2 620.7"/><path d="M 805.799 720.7 805.799 809.2 894.2 809.2 894.2 720.7"/><path d="M 805.799 820.7 805.799 909.2 894.2 909.2 894.2 820.7"/><path d="M 805.799 920.7 805.799 1009.2 894.2 1009.2 894.2 920.7"/><path d="M 805.799 1020.7 805.799 1109.2 894.2 1109.2 894.2 1020.7"/><path d="M 105.799 1020.7 105.799 1109.2 194.299 1109.2 194.299 1020.7"/><path d="M 105.799 920.7 105.799 1009.2 194.299 1009.2 194.299 920.7"/><path d="M 105.799 820.7 105.799 909.2 194.299 909.2 194.299 820.7"/><path d="M 105.799 720.7 105.799 809.2 194.299 809.2 194.299 720.7"/><path d="M 105.799 620.7 105.799 709.2 194.299 709.2 194.299 620.7"/><path d="M 105.799 520.7 105.799 609.2 194.299 609.2 194.299 520.7"/><use xlink:href="#Jp3xlSDUCECFLgdkWXnW_pad-20" x="50" y="450"/><use xlink:href="#Jp3xlSDUCECFLgdkWXnW_pad-20" x="50" y="550"/><use xlink:href="#Jp3xlSDUCECFLgdkWXnW_pad-20" x="50" y="650"/><use xlink:href="#Jp3xlSDUCECFLgdkWXnW_pad-20" x="50" y="750"/><use xlink:href="#Jp3xlSDUCECFLgdkWXnW_pad-20" x="50" y="850"/><use xlink:href="#Jp3xlSDUCECFLgdkWXnW_pad-20" x="50" y="950"/><use xlink:href="#Jp3xlSDUCECFLgdkWXnW_pad-20" x="50" y="1050"/><use xlink:href="#Jp3xlSDUCECFLgdkWXnW_pad-20" x="950" y="450"/><use xlink:href="#Jp3xlSDUCECFLgdkWXnW_pad-20" x="950" y="550"/><use xlink:href="#Jp3xlSDUCECFLgdkWXnW_pad-20" x="950" y="650"/><use xlink:href="#Jp3xlSDUCECFLgdkWXnW_pad-20" x="950" y="750"/><use xlink:href="#Jp3xlSDUCECFLgdkWXnW_pad-20" x="950" y="850"/><use xlink:href="#Jp3xlSDUCECFLgdkWXnW_pad-20" x="950" y="950"/><use xlink:href="#Jp3xlSDUCECFLgdkWXnW_pad-20" x="950" y="1050"/><use xlink:href="#Jp3xlSDUCECFLgdkWXnW_pad-20" x="50" y="350"/><use xlink:href="#Jp3xlSDUCECFLgdkWXnW_pad-20" x="950" y="350"/></g><g id="EAAkFM-HclNvTWwTSthK_top_copper"><path d="M 799.7 965 384.699 550 315.5 550 M 850 965 799.7 965 M 850 665 720 535 720 208.499 M 256.799 609.699 344.299 609.699 799.7 1065 M 850 1065 799.7 1065 M 150 965 232.699 882.3 232.699 337.6 M 850 450 850 297.1 733.5 180.599 352.199 180.599 150 382.8 150 565 M 850 539.8 850 450 M 950 450 850 450 M 850 565 850 539.8 M 150 565 150 665 M 950 650 907.899 692.1 907.899 807.1 850 865 M 50 650 50 686.399 92.1 728.499 92.1 1007.1 150 1065 M 50 350 99.499 399.499 99.499 714.499 150 765" fill="none" stroke-width="8"/><use xlink:href="#MmcDmViEF0aEw2W8Utmn_pad-13" x="850" y="565"/><use xlink:href="#MmcDmViEF0aEw2W8Utmn_pad-13" x="850" y="665"/><use xlink:href="#MmcDmViEF0aEw2W8Utmn_pad-13" x="850" y="765"/><use xlink:href="#MmcDmViEF0aEw2W8Utmn_pad-13" x="850" y="865"/><use xlink:href="#MmcDmViEF0aEw2W8Utmn_pad-13" x="850" y="965"/><use xlink:href="#MmcDmViEF0aEw2W8Utmn_pad-13" x="850" y="1065"/><path d="M 109.749 1105.25 190.25 1105.25 190.25 1024.749 109.749 1024.749"/><path d="M 109.749 1005.25 190.25 1005.25 190.25 924.749 109.749 924.749"/><path d="M 109.749 905.25 190.25 905.25 190.25 824.749 109.749 824.749"/><path d="M 109.749 805.25 190.25 805.25 190.25 724.749 109.749 724.749"/><path d="M 109.749 705.25 190.25 705.25 190.25 624.749 109.749 624.749"/><path d="M 109.749 605.25 190.25 605.25 190.25 524.749 109.749 524.749"/><use xlink:href="#MmcDmViEF0aEw2W8Utmn_pad-14" x="950" y="250"/><use xlink:href="#MmcDmViEF0aEw2W8Utmn_pad-14" x="950" y="150"/><use xlink:href="#MmcDmViEF0aEw2W8Utmn_pad-14" x="50" y="450"/><use xlink:href="#MmcDmViEF0aEw2W8Utmn_pad-14" x="50" y="550"/><use xlink:href="#MmcDmViEF0aEw2W8Utmn_pad-14" x="50" y="650"/><use xlink:href="#MmcDmViEF0aEw2W8Utmn_pad-14" x="50" y="750"/><use xlink:href="#MmcDmViEF0aEw2W8Utmn_pad-14" x="50" y="850"/><use xlink:href="#MmcDmViEF0aEw2W8Utmn_pad-14" x="50" y="950"/><use xlink:href="#MmcDmViEF0aEw2W8Utmn_pad-14" x="50" y="1050"/><use xlink:href="#MmcDmViEF0aEw2W8Utmn_pad-14" x="950" y="450"/><use xlink:href="#MmcDmViEF0aEw2W8Utmn_pad-14" x="950" y="550"/><use xlink:href="#MmcDmViEF0aEw2W8Utmn_pad-14" x="950" y="650"/><use xlink:href="#MmcDmViEF0aEw2W8Utmn_pad-14" x="950" y="750"/><use xlink:href="#MmcDmViEF0aEw2W8Utmn_pad-14" x="950" y="850"/><use xlink:href="#MmcDmViEF0aEw2W8Utmn_pad-14" x="950" y="950"/><use xlink:href="#MmcDmViEF0aEw2W8Utmn_pad-14" x="950" y="1050"/><use xlink:href="#MmcDmViEF0aEw2W8Utmn_pad-14" x="50" y="350"/><use xlink:href="#MmcDmViEF0aEw2W8Utmn_pad-14" x="950" y="350"/><use xlink:href="#MmcDmViEF0aEw2W8Utmn_pad-12" x="315.5" y="550"/><use xlink:href="#MmcDmViEF0aEw2W8Utmn_pad-12" x="720" y="208.499"/><use xlink:href="#MmcDmViEF0aEw2W8Utmn_pad-12" x="256.799" y="609.699"/><use xlink:href="#MmcDmViEF0aEw2W8Utmn_pad-12" x="232.699" y="337.6"/></g><g id="EAAkFM-HclNvTWwTSthK_top_silkscreen"><path d="M 512.901 955.001 470.001 955.001 M 512.901 955.001 470.001 938.6 M 512.901 922.301 470.001 938.6 M 512.901 922.301 470.001 922.301 M 512.901 908.8 470.001 908.8 M 512.901 908.8 512.901 890.401 510.901 884.2 508.9 882.201 504.8 880.1 500.7 880.1 496.601 882.201 494.501 884.2 492.501 890.401 492.501 908.8 M 492.501 894.501 470.001 880.1 M 512.901 866.601 470.001 866.601 M 512.901 866.601 512.901 840.001 M 492.501 866.601 492.501 850.3 M 502.7 824.501 504.8 824.501 508.9 822.501 510.901 820.401 512.901 816.3 512.901 808.101 510.901 804 508.9 802.001 504.8 800.001 500.7 800.001 496.601 802.001 490.401 806.1 470.001 826.5 470.001 797.901 M 512.901 764 484.3 784.4 484.3 753.701 M 512.901 764 470.001 764 M 512.901 719.801 480.2 719.801 474.101 721.801 472.001 723.901 470.001 728 470.001 732.001 472.001 736.1 474.101 738.2 480.2 740.201 484.3 740.201 M 512.901 685.801 484.3 706.3 484.3 675.601 M 512.901 685.801 470.001 685.801 M 512.901 649.801 510.901 656.001 504.8 660.001 494.501 662.1 488.401 662.1 478.2 660.001 472.001 656.001 470.001 649.801 470.001 645.7 472.001 639.6 478.2 635.5 488.401 633.501 494.501 633.501 504.8 635.5 510.901 639.6 512.901 645.7 512.901 649.801 M 512.901 620.001 470.001 620.001 M 512.901 620.001 470.001 603.6 M 512.901 587.201 470.001 603.6 M 512.901 587.201 470.001 587.201 M 512.901 557.4 470.001 573.701 M 512.901 557.4 470.001 541.001 M 484.3 567.6 484.3 547.1 M 500 1199.499 500 1168.899 501.999 1162.699 506.099 1158.6 512.299 1156.599 516.4 1156.599 522.5 1158.6 526.599 1162.699 528.599 1168.899 528.599 1199.499 M 566.7 1199.499 546.199 1199.499 544.2 1181.1 546.199 1183.2 552.399 1185.199 558.5 1185.199 564.6 1183.2 568.699 1179.099 570.799 1173 570.799 1168.899 568.699 1162.699 564.6 1158.6 558.5 1156.599 552.399 1156.599 546.199 1158.6 544.2 1160.7 542.1 1164.8" fill="none" stroke-width="7"/><path d="M 220 565.001 220 526.801 M 220 565.001 232.699 565.001 238.2 563.2 241.799 559.6 243.6 555.9 245.5 550.5 245.5 541.401 243.6 535.9 241.799 532.301 238.2 528.701 232.699 526.801 220 526.801 M 282.899 565.001 264.699 526.801 M 257.5 565.001 282.899 565.001 M 210 665.001 210 626.801 M 210 665.001 222.699 665.001 228.2 663.2 231.799 659.6 233.6 655.9 235.5 650.5 235.5 641.401 233.6 635.9 231.799 632.301 228.2 628.701 222.699 626.801 210 626.801 M 269.299 659.6 267.5 663.2 261.999 665.001 258.4 665.001 252.899 663.2 249.299 657.701 247.5 648.701 247.5 639.6 249.299 632.301 252.899 628.701 258.4 626.801 260.199 626.801 265.599 628.701 269.299 632.301 271.1 637.701 271.1 639.6 269.299 645.001 265.599 648.701 260.199 650.5 258.4 650.5 252.899 648.701 249.299 645.001 247.5 639.6 M 210 765.001 210 726.801 M 210 765.001 222.699 765.001 228.2 763.2 231.799 759.6 233.6 755.9 235.5 750.5 235.5 741.401 233.6 735.9 231.799 732.301 228.2 728.701 222.699 726.801 210 726.801 M 269.299 765.001 251.1 765.001 249.299 748.701 251.1 750.5 256.5 752.301 261.999 752.301 267.5 750.5 271.1 746.801 272.899 741.401 272.899 737.701 271.1 732.301 267.5 728.701 261.999 726.801 256.5 726.801 251.1 728.701 249.299 730.5 247.5 734.101 M 220 465.001 220 426.801 M 220 465.001 232.699 465.001 238.2 463.2 241.799 459.6 243.6 455.9 245.5 450.5 245.5 441.401 243.6 435.9 241.799 432.301 238.2 428.701 232.699 426.801 220 426.801 M 266.5 465.001 261.1 463.2 259.299 459.6 259.299 455.9 261.1 452.301 264.699 450.5 271.999 448.701 277.5 446.801 281.1 443.2 282.899 439.6 282.899 434.101 281.1 430.5 279.299 428.701 273.8 426.801 266.5 426.801 261.1 428.701 259.299 430.5 257.5 434.101 257.5 439.6 259.299 443.2 262.899 446.801 268.4 448.701 275.599 450.5 279.299 452.301 281.1 455.9 281.1 459.6 279.299 463.2 273.8 465.001 266.5 465.001 M 223.6 365.001 243.6 365.001 232.699 350.5 238.2 350.5 241.799 348.701 243.6 346.801 245.5 341.401 245.5 337.701 243.6 332.301 240 328.701 234.499 326.801 229.099 326.801 223.6 328.701 221.799 330.5 220 334.101 M 257.5 365.001 271.999 326.801 M 286.5 365.001 271.999 326.801 M 302.199 365.001 322.199 365.001 311.3 350.5 316.7 350.5 320.399 348.701 322.199 346.801 324 341.401 324 337.701 322.199 332.301 318.499 328.701 313.099 326.801 307.6 326.801 302.199 328.701 300.399 330.5 298.499 334.101 M 210 865.001 210 826.801 M 210 865.001 222.699 865.001 228.2 863.2 231.799 859.6 233.6 855.9 235.5 850.5 235.5 841.401 233.6 835.9 231.799 832.301 228.2 828.701 222.699 826.801 210 826.801 M 258.4 865.001 252.899 863.2 249.299 857.701 247.5 848.701 247.5 843.2 249.299 834.101 252.899 828.701 258.4 826.801 261.999 826.801 267.5 828.701 271.1 834.101 272.899 843.2 272.899 848.701 271.1 857.701 267.5 863.2 261.999 865.001 258.4 865.001 M 224.499 965.001 210 926.801 M 224.499 965.001 239.099 926.801 M 215.5 939.6 233.6 939.6 M 261.999 965.001 256.5 963.2 252.899 957.701 251.1 948.701 251.1 943.2 252.899 934.101 256.5 928.701 261.999 926.801 265.599 926.801 271.1 928.701 274.699 934.101 276.5 943.2 276.5 948.701 274.699 957.701 271.1 963.2 265.599 965.001 261.999 965.001 M 210 1065.001 210 1026.801 M 210 1065.001 226.399 1065.001 231.799 1063.2 233.6 1061.401 235.5 1057.701 235.5 1054.101 233.6 1050.5 231.799 1048.701 226.399 1046.801 210 1046.801 M 222.699 1046.801 235.5 1026.801 M 272.899 1059.6 269.299 1063.2 263.8 1065.001 256.5 1065.001 251.1 1063.2 247.5 1059.6 247.5 1055.9 249.299 1052.301 251.1 1050.5 254.699 1048.701 265.599 1045.001 269.299 1043.2 271.1 1041.401 272.899 1037.701 272.899 1032.301 269.299 1028.701 263.8 1026.801 256.5 1026.801 251.1 1028.701 247.5 1032.301 M 297.6 1065.001 297.6 1026.801 M 284.899 1065.001 310.399 1065.001 M 742.7 1065.001 742.7 1026.801 M 730 1065.001 755.5 1065.001 M 767.5 1065.001 792.899 1026.801 M 792.899 1065.001 767.5 1026.801 M 730 965.001 730 926.801 M 730 965.001 746.4 965.001 751.8 963.2 753.599 961.401 755.5 957.701 755.5 954.101 753.599 950.5 751.8 948.701 746.4 946.801 730 946.801 M 742.7 946.801 755.5 926.801 M 767.5 965.001 792.899 926.801 M 792.899 965.001 767.5 926.801 M 740 865.001 740 826.801 M 740 865.001 752.7 865.001 758.199 863.2 761.8 859.6 763.599 855.9 765.5 850.5 765.5 841.401 763.599 835.9 761.8 832.301 758.199 828.701 752.7 826.801 740 826.801 M 777.5 857.701 781.099 859.6 786.499 865.001 786.499 826.801 M 730 765.001 730 726.801 M 730 765.001 742.7 765.001 748.199 763.2 751.8 759.6 753.599 755.9 755.5 750.5 755.5 741.401 753.599 735.9 751.8 732.301 748.199 728.701 742.7 726.801 730 726.801 M 769.3 755.9 769.3 757.701 771.099 761.401 772.899 763.2 776.499 765.001 783.8 765.001 787.5 763.2 789.3 761.401 791.099 757.701 791.099 754.101 789.3 750.5 785.6 745.001 767.5 726.801 792.899 726.801 M 730 665.001 730 626.801 M 730 665.001 742.7 665.001 748.199 663.2 751.8 659.6 753.599 655.9 755.5 650.5 755.5 641.401 753.599 635.9 751.8 632.301 748.199 628.701 742.7 626.801 730 626.801 M 771.099 665.001 791.099 665.001 780.2 650.5 785.6 650.5 789.3 648.701 791.099 646.801 792.899 641.401 792.899 637.701 791.099 632.301 787.5 628.701 781.999 626.801 776.499 626.801 771.099 628.701 769.3 630.5 767.5 634.101 M 730 565 730 526.799 M 730 565 742.7 565 748.199 563.2 751.8 559.6 753.599 555.9 755.5 550.5 755.5 541.399 753.599 535.9 751.8 532.3 748.199 528.699 742.7 526.799 730 526.799 M 785.6 565 767.5 539.6 794.7 539.6 M 785.6 565 785.6 526.799 M 717.299 455.9 715.5 459.6 711.8 463.2 708.199 465.001 700.9 465.001 697.299 463.2 693.599 459.6 691.8 455.9 690 450.5 690 441.401 691.8 435.9 693.599 432.301 697.299 428.701 700.9 426.801 708.199 426.801 711.8 428.701 715.5 432.301 717.299 435.9 717.299 441.401 M 708.199 441.401 717.299 441.401 M 729.3 465.001 729.3 426.801 M 729.3 465.001 754.7 426.801 M 754.7 465.001 754.7 426.801 M 766.7 465.001 766.7 426.801 M 766.7 465.001 779.499 465.001 784.899 463.2 788.5 459.6 790.399 455.9 792.2 450.5 792.2 441.401 790.399 435.9 788.5 432.301 784.899 428.701 779.499 426.801 766.7 426.801 M 741.8 365.001 723.599 365.001 721.8 348.701 723.599 350.5 729.099 352.301 734.499 352.301 740 350.5 743.599 346.801 745.5 341.401 745.5 337.701 743.599 332.301 740 328.701 734.499 326.801 729.099 326.801 723.599 328.701 721.8 330.5 720 334.101 M 757.5 365.001 771.999 326.801 M 786.499 365.001 771.999 326.801" fill="none" stroke-width="8"/><path d="M 120 465 120 35 880 35 880 465 810 465 810 155 540 155 540 465 460 465 460 155 190 155 190 465"/><path d="M 797.6 1125 202.399 1125" fill="none" stroke-width="7.9"/><path d="M 0 775 25 800 0 825 0 875 25 900 0 925 0 975 25 1000 0 1025 0 1075 25 1100 75 1100 100 1075 100 1025 75 1000 100 975 100 925 75 900 100 875 100 825 75 800 100 775 100 725 75 700 100 675 100 625 75 600 100 575 100 525 75 500 100 475 100 425 75 400 100 375 100 325 75 300 25 300 0 325 M 0 725 25 700 0 675 M 0 625 25 600 0 575 M 0 525 25 500 0 475 M 0 425 25 400 0 375 M 0 1075 0 1125 1000 1125 1000 1075 1000 1025 1000 975 1000 925 1000 875 1000 825 1000 0 75 0 75 275 0 275 0 825 M 0 875 0 925 M 0 975 0 1025 M 1000 825 975 800 1000 775 M 1000 725 975 700 1000 675 M 1000 625 975 600 1000 575 M 1000 525 975 500 1000 475 M 1000 425 975 400 1000 375 M 1000 325 975 300 925 300 900 325 900 375 925 400 900 425 900 475 925 500 900 525 900 575 925 600 900 625 900 675 925 700 900 725 900 775 925 800 900 825 900 875 925 900 900 925 900 975 925 1000 900 1025 900 1075 925 1100 975 1100 1000 1075 M 1000 1025 975 1000 1000 975 M 1000 925 975 900 1000 875" fill="none" stroke-width="10"/><path d="M 901.6 510.7 A 4.9002551 4.9002551 0 1 1 901.6 510.8" fill="none" stroke-width="9.8"/><path d="M 855 495 A 5 5 0 0 1 845 495 5 5 0 0 1 855 495" fill="none" stroke-width="10"/><path d="M 860 495 A 10 10 0 0 1 840 495 10 10 0 0 1 860 495 M 960 50 A 10 10 0 0 1 940 50 10 10 0 0 1 960 50" fill="none" stroke-width="30"/><path d="M 955 50 A 5 5 0 0 1 945 50 5 5 0 0 1 955 50" fill="none" stroke-width="10"/></g><g id="EAAkFM-HclNvTWwTSthK_top_solderpaste"><use xlink:href="#eZXIQYCmpe3kk6mpZW5a_pad-13" x="850" y="565"/><use xlink:href="#eZXIQYCmpe3kk6mpZW5a_pad-13" x="850" y="665"/><use xlink:href="#eZXIQYCmpe3kk6mpZW5a_pad-13" x="850" y="765"/><use xlink:href="#eZXIQYCmpe3kk6mpZW5a_pad-13" x="850" y="865"/><use xlink:href="#eZXIQYCmpe3kk6mpZW5a_pad-13" x="850" y="965"/><use xlink:href="#eZXIQYCmpe3kk6mpZW5a_pad-13" x="850" y="1065"/><path d="M 109.749 1105.25 190.25 1105.25 190.25 1024.749 109.749 1024.749"/><path d="M 109.749 1005.25 190.25 1005.25 190.25 924.749 109.749 924.749"/><path d="M 109.749 905.25 190.25 905.25 190.25 824.749 109.749 824.749"/><path d="M 109.749 805.25 190.25 805.25 190.25 724.749 109.749 724.749"/><path d="M 109.749 705.25 190.25 705.25 190.25 624.749 109.749 624.749"/><path d="M 109.749 605.25 190.25 605.25 190.25 524.749 109.749 524.749"/></g><g id="EAAkFM-HclNvTWwTSthK_top_drill1"><use xlink:href="#sG2M875vX2EV_MYF4oi7_pad-1" x="315.5" y="550"/><use xlink:href="#sG2M875vX2EV_MYF4oi7_pad-1" x="720" y="208.5"/><use xlink:href="#sG2M875vX2EV_MYF4oi7_pad-1" x="256.8" y="609.7"/><use xlink:href="#sG2M875vX2EV_MYF4oi7_pad-1" x="232.7" y="337.6"/><use xlink:href="#sG2M875vX2EV_MYF4oi7_pad-2" x="950" y="250"/><use xlink:href="#sG2M875vX2EV_MYF4oi7_pad-2" x="950" y="150"/><use xlink:href="#sG2M875vX2EV_MYF4oi7_pad-2" x="50" y="450"/><use xlink:href="#sG2M875vX2EV_MYF4oi7_pad-2" x="50" y="550"/><use xlink:href="#sG2M875vX2EV_MYF4oi7_pad-2" x="50" y="650"/><use xlink:href="#sG2M875vX2EV_MYF4oi7_pad-2" x="50" y="750"/><use xlink:href="#sG2M875vX2EV_MYF4oi7_pad-2" x="50" y="850"/><use xlink:href="#sG2M875vX2EV_MYF4oi7_pad-2" x="50" y="950"/><use xlink:href="#sG2M875vX2EV_MYF4oi7_pad-2" x="50" y="1050"/><use xlink:href="#sG2M875vX2EV_MYF4oi7_pad-2" x="950" y="450"/><use xlink:href="#sG2M875vX2EV_MYF4oi7_pad-2" x="950" y="550"/><use xlink:href="#sG2M875vX2EV_MYF4oi7_pad-2" x="950" y="650"/><use xlink:href="#sG2M875vX2EV_MYF4oi7_pad-2" x="950" y="750"/><use xlink:href="#sG2M875vX2EV_MYF4oi7_pad-2" x="950" y="850"/><use xlink:href="#sG2M875vX2EV_MYF4oi7_pad-2" x="950" y="950"/><use xlink:href="#sG2M875vX2EV_MYF4oi7_pad-2" x="950" y="1050"/><use xlink:href="#sG2M875vX2EV_MYF4oi7_pad-2" x="50" y="350"/><use xlink:href="#sG2M875vX2EV_MYF4oi7_pad-2" x="950" y="350"/></g><clipPath id="EAAkFM-HclNvTWwTSthK_top_outline"><path d="M 0 1125 1000 1125 1000 0 75 0 75 95 75 275 0 275 0 1125" fill="none" stroke-width="10"/></clipPath><mask id="EAAkFM-HclNvTWwTSthK_top_mech-mask"><g fill="#000" stroke="#000"><rect x="0" y="0" width="1000" height="1125" fill="#fff"/><use xlink:href="#EAAkFM-HclNvTWwTSthK_top_drill1"/></g></mask><mask id="EAAkFM-HclNvTWwTSthK_top_cf-mask"><g fill="#fff" stroke="#fff"><use xlink:href="#EAAkFM-HclNvTWwTSthK_top_soldermask"/></g></mask><mask id="EAAkFM-HclNvTWwTSthK_top_sm-mask"><g fill="#000" stroke="#000"><rect x="0" y="0" width="1000" height="1125" fill="#fff"/><use xlink:href="#EAAkFM-HclNvTWwTSthK_top_soldermask"/></g></mask></defs><g transform="translate(0,1125) scale(1,-1)"><g mask="url(#EAAkFM-HclNvTWwTSthK_top_mech-mask)" clip-path="url(#EAAkFM-HclNvTWwTSthK_top_outline)"><rect x="0" y="0" width="1000" height="1125" fill="currentColor" class="EAAkFM-HclNvTWwTSthK_fr4"/><use xlink:href="#EAAkFM-HclNvTWwTSthK_top_copper" fill="currentColor" stroke="currentColor" class="EAAkFM-HclNvTWwTSthK_cu"/><use xlink:href="#EAAkFM-HclNvTWwTSthK_top_copper" fill="currentColor" stroke="currentColor" class="EAAkFM-HclNvTWwTSthK_cf" mask="url(#EAAkFM-HclNvTWwTSthK_top_cf-mask)"/><g mask="url(#EAAkFM-HclNvTWwTSthK_top_sm-mask)"><rect x="0" y="0" width="1000" height="1125" fill="currentColor" class="EAAkFM-HclNvTWwTSthK_sm"/><use xlink:href="#EAAkFM-HclNvTWwTSthK_top_silkscreen" fill="currentColor" stroke="currentColor" class="EAAkFM-HclNvTWwTSthK_ss"/></g><use xlink:href="#EAAkFM-HclNvTWwTSthK_top_solderpaste" fill="currentColor" stroke="currentColor" class="EAAkFM-HclNvTWwTSthK_sp"/></g></g></svg>